<svg width="605" height="198" viewBox="0 0 605 198" fill="none" xmlns="http://www.w3.org/2000/svg">
<path d="M8.00794 0.316259C12.7213 0.720254 16.8286 1.99959 20.3299 4.15426C23.8313 6.17426 25.5819 9.27159 25.5819 13.4463C25.5819 16.5436 24.1006 19.0349 21.1379 20.9203C18.3099 22.6709 14.8759 23.5463 10.8359 23.5463C6.9306 23.5463 4.23727 22.5363 2.75594 20.5163C1.2746 18.4963 0.533936 16.4089 0.533936 14.2543C0.533936 10.2143 0.937936 6.84759 1.74594 4.15426C2.6886 1.46093 4.77594 0.181595 8.00794 0.316259ZM24.1679 95.6603C24.1679 100.912 24.3026 105.895 24.5719 110.608C24.9759 115.187 25.4473 119.833 25.9859 124.546C25.8513 125.893 24.8413 127.307 22.9559 128.788C21.0706 130.135 19.3873 130.808 17.9059 130.808C15.3473 130.808 12.7213 130.337 10.0279 129.394C7.46927 128.317 5.9206 127.038 5.38194 125.556C4.57394 121.247 4.16994 117.409 4.16994 114.042C4.16994 103 3.83327 90.6103 3.15994 76.8743C2.62127 64.7543 2.35194 56.2703 2.35194 51.4223C2.35194 48.9983 3.56394 46.9109 5.98794 45.1603C8.41194 43.4096 10.9706 42.5343 13.6639 42.5343C17.5693 42.5343 20.2626 43.4096 21.7439 45.1603C23.3599 46.9109 24.1679 49.6716 24.1679 53.4423V95.6603Z" fill="#4298E8"/>
<path d="M132.21 61.7243C142.04 62.9363 149.312 66.1009 154.026 71.2183C158.874 76.2009 161.298 82.3956 161.298 89.8023C161.298 97.2089 158.537 104.212 153.016 110.81C147.629 117.409 140.694 122.526 132.21 126.162C128.439 127.644 123.456 128.721 117.262 129.394C111.202 130.068 104.94 130.404 98.4755 130.404C87.7022 130.404 76.6595 129.394 65.3475 127.374C63.3275 126.97 61.1729 125.96 58.8835 124.344C56.7289 122.728 55.6515 120.372 55.6515 117.274C55.5169 104.885 55.0455 87.6476 54.2375 65.5623L54.0355 54.4523C53.4969 37.2149 53.2275 23.6809 53.2275 13.8503C53.2275 12.0996 54.2375 10.0796 56.2575 7.79026C58.4122 5.36626 60.9709 4.01959 63.9335 3.75026C65.6842 3.75026 67.3675 3.68293 68.9835 3.54825C84.2009 2.06692 94.3682 1.32626 99.4855 1.32626C109.586 1.32626 118.474 2.33626 126.15 4.35626C133.96 6.24159 140.424 9.74292 145.542 14.8603C147.427 17.0149 148.976 19.7756 150.188 23.1423C151.4 26.3743 152.006 29.5389 152.006 32.6363C152.14 39.2349 150.39 45.2949 146.754 50.8163C143.252 56.3376 138.404 59.9736 132.21 61.7243ZM100.698 18.4963C96.1189 18.4963 91.3382 18.7656 86.3555 19.3043C81.5075 19.8429 77.4002 20.5163 74.0335 21.3243L75.2455 59.5023L82.5175 59.3003C94.2335 58.0883 102.852 57.0783 108.374 56.2703C111.875 55.4623 115.309 53.9136 118.676 51.6243C122.042 49.2003 124.803 46.7089 126.958 44.1503C129.247 41.4569 130.392 39.4369 130.392 38.0903C130.392 36.0703 129.988 34.0503 129.18 32.0303C128.372 29.8756 127.496 28.3269 126.554 27.3843C122.918 23.8829 119.214 21.5263 115.444 20.3143C111.673 19.1023 106.758 18.4963 100.698 18.4963ZM75.8515 112.628C82.7195 113.571 89.2509 114.042 95.4455 114.042C109.047 114.042 119.753 112.292 127.564 108.79C135.509 105.154 139.482 98.2863 139.482 88.1863C139.482 84.1463 136.452 80.7796 130.392 78.0863C124.332 75.3929 117.8 74.0463 110.798 74.0463C106.084 74.0463 100.092 74.5849 92.8195 75.6623C87.0289 76.4703 81.3729 77.0089 75.8515 77.2783C76.1209 85.3583 76.2555 90.4756 76.2555 92.6303C76.2555 96.8049 76.1882 99.9696 76.0535 102.124L75.8515 112.628Z" fill="black"/>
<path d="M259.567 65.1583C260.645 67.0436 261.52 69.8043 262.193 73.4403C262.867 76.9416 263.203 80.1063 263.203 82.9343C263.203 86.5703 262.799 90.6103 261.991 95.0543C261.183 99.4983 260.443 102.932 259.769 105.356C250.477 122.324 236.741 130.808 218.561 130.808C211.828 130.808 204.96 128.586 197.957 124.142C190.955 119.698 186.107 114.581 183.413 108.79C179.777 97.3436 177.959 90.0043 177.959 86.7723C177.959 81.3856 179.104 75.6623 181.393 69.6023C183.817 63.5423 186.847 58.2903 190.483 53.8463C192.907 50.7489 197.082 48.1229 203.007 45.9683C208.933 43.6789 214.319 42.5343 219.167 42.5343C228.594 42.5343 236.539 44.3523 243.003 47.9883C249.602 51.4896 255.123 57.2129 259.567 65.1583ZM241.993 97.6803C242.667 96.3336 243.003 91.8223 243.003 84.1463C243.003 80.2409 242.263 76.4029 240.781 72.6323C239.435 68.8616 237.415 65.6296 234.721 62.9363C234.452 62.6669 233.711 62.2629 232.499 61.7243C231.287 61.0509 229.604 60.4449 227.449 59.9063C225.429 59.2329 223.073 58.8963 220.379 58.8963C212.838 58.8963 207.317 61.9263 203.815 67.9863C200.314 74.0463 198.563 80.9143 198.563 88.5903C198.563 89.8023 198.967 92.2936 199.775 96.0643C200.583 99.8349 201.189 102.259 201.593 103.336C202.671 105.222 204.825 107.444 208.057 110.002C211.424 112.426 215.06 113.638 218.965 113.638C225.025 113.638 229.806 112.224 233.307 109.396C236.943 106.434 239.839 102.528 241.993 97.6803Z" fill="black"/>
<path d="M362.146 65.1583C363.223 67.0436 364.098 69.8043 364.771 73.4403C365.445 76.9416 365.781 80.1063 365.781 82.9343C365.781 86.7049 365.176 91.4183 363.964 97.0743C362.752 102.596 361.742 106.299 360.934 108.184C353.662 123.267 339.656 130.808 318.918 130.808C312.319 130.808 305.855 128.654 299.526 124.344C293.196 119.9 288.685 114.716 285.991 108.79L284.577 104.75C284.443 104.212 283.702 102.192 282.355 98.6903C281.143 95.0543 280.538 92.2936 280.538 90.4083C280.538 84.8869 281.884 78.4903 284.577 71.2183C287.271 63.9463 290.368 58.1556 293.87 53.8463C296.159 50.7489 300.536 48.1229 307 45.9683C313.464 43.6789 319.187 42.5343 324.169 42.5343C333.461 42.5343 340.935 44.2849 346.591 47.7863C352.382 51.2876 357.567 57.0783 362.146 65.1583ZM343.561 97.6803C344.1 96.7376 344.571 95.0543 344.975 92.6303C345.379 90.2063 345.582 87.3783 345.582 84.1463C345.582 80.2409 344.841 76.4029 343.359 72.6323C342.013 68.8616 339.993 65.6296 337.299 62.9363C337.165 62.6669 336.693 62.2629 335.885 61.7243C335.078 61.0509 333.798 60.4449 332.047 59.9063C330.297 59.2329 328.075 58.8963 325.382 58.8963C320.129 58.8963 315.685 60.4449 312.049 63.5423C308.413 66.6396 305.653 70.4776 303.767 75.0563C302.017 79.6349 301.142 84.1463 301.142 88.5903C301.142 89.8023 301.545 92.2936 302.353 96.0643C303.161 99.8349 303.768 102.259 304.172 103.336C305.249 105.222 307.336 107.444 310.434 110.002C313.531 112.426 317.032 113.638 320.938 113.638C326.998 113.638 331.711 112.224 335.078 109.396C338.579 106.568 341.407 102.663 343.561 97.6803Z" fill="black"/>
<path d="M385.136 60.1083C383.25 59.8389 381.702 59.0309 380.49 57.6843C379.412 56.3376 378.874 54.7216 378.874 52.8363C378.874 51.8936 379.076 50.8836 379.48 49.8063C380.018 48.7289 380.759 47.7863 381.702 46.9783C383.452 45.2276 388.166 44.3523 395.842 44.3523C396.919 39.1003 397.458 33.7809 397.458 28.3943C397.458 26.3743 397.39 24.6236 397.256 23.1423C397.121 21.6609 397.054 20.5163 397.054 19.7083C397.054 16.7456 398.131 14.5236 400.286 13.0423C402.575 11.5609 405.134 10.8203 407.962 10.8203C411.463 10.8203 413.82 11.6956 415.032 13.4463C416.378 15.1969 417.052 18.4289 417.052 23.1423C417.052 30.1449 416.446 37.0129 415.234 43.7463C417.388 43.7463 420.351 43.6116 424.122 43.3423C429.239 43.0729 432.942 42.9383 435.232 42.9383C437.521 42.9383 439.474 43.5443 441.09 44.7563C442.84 45.8336 443.716 47.3823 443.716 49.4023C443.716 54.6543 441.359 57.7516 436.646 58.6943C431.663 59.9063 423.92 60.6469 413.416 60.9163C413.012 66.1683 412.81 71.8916 412.81 78.0863C412.81 87.7823 413.416 95.7276 414.628 101.922C415.436 106.232 416.782 109.396 418.668 111.416C420.688 113.302 423.65 114.244 427.556 114.244C429.845 114.244 432.202 113.638 434.626 112.426C436.242 111.484 437.723 111.012 439.07 111.012C440.955 111.012 442.302 111.618 443.11 112.83C444.052 114.042 444.524 115.658 444.524 117.678C444.524 121.449 442.504 124.614 438.464 127.172C434.424 129.596 429.239 130.808 422.91 130.808C419.004 130.808 415.032 129.866 410.992 127.98C407.086 126.095 403.787 123.738 401.094 120.91C400.69 120.506 399.949 118.958 398.872 116.264C397.794 113.571 396.852 110.676 396.044 107.578C394.697 101.249 394.024 92.3609 394.024 80.9143C394.024 75.9316 394.293 69.2656 394.832 60.9163L385.136 60.1083Z" fill="black"/>
<path d="M363.384 158.604C363.399 161.971 361.529 165.547 357.774 169.334C354.155 173.255 349.726 176.843 344.488 180.097C339.385 183.486 334.885 185.929 330.986 187.427C323.726 190.287 315.319 192.679 305.766 194.606C296.348 196.531 287.464 197.512 279.115 197.548C262.012 197.622 246.585 195.735 232.832 191.889C219.214 188.042 208.081 182.636 199.432 175.67C196.595 173.527 193.684 170.039 190.701 165.203C187.717 160.368 186.218 156.2 186.203 152.699C186.197 151.217 186.931 149.8 188.407 148.447C189.748 147.229 191.16 146.617 192.641 146.611C194.257 146.604 195.943 147.27 197.7 148.609C199.322 150.084 201.351 152.162 203.787 154.845C207.303 158.331 209.061 160.074 209.061 160.074C213.522 163.961 222.766 168.432 236.793 173.49C246.369 176.815 258.698 178.446 273.78 178.381C287.381 178.322 301.109 176.244 314.962 172.144C328.95 168.179 339.097 163.354 345.402 157.671L349.021 153.616C352.37 149.696 354.786 147.733 356.267 147.726C358.557 147.717 360.312 148.719 361.532 150.734C362.753 152.749 363.37 155.372 363.384 158.604Z" fill="black"/>
<path d="M501.434 95.9633C500.895 95.9633 500.39 95.7613 499.919 95.3573C499.515 94.8859 499.313 94.3473 499.313 93.7413C499.313 92.1926 499.986 90.7449 501.333 89.3983C501.737 89.1963 502.545 88.8596 503.757 88.3883C504.969 87.9169 506.046 87.6813 506.989 87.6813C509.548 87.6813 511.635 88.3883 513.251 89.8023C514.867 91.1489 515.675 93.1016 515.675 95.6603C515.675 96.4009 515.54 97.9833 515.271 100.407C515.002 103.235 514.867 105.424 514.867 106.972C514.867 111.686 515.507 115.49 516.786 118.385C517.257 119.328 517.998 120.069 519.008 120.607C520.018 121.146 520.927 121.415 521.735 121.415C523.688 121.415 525.27 121.079 526.482 120.405C527.694 119.732 529.007 118.655 530.421 117.173C531.835 115.692 532.744 114.009 533.148 112.123C533.619 110.238 533.956 107.646 534.158 104.346C534.293 102.192 534.427 100.609 534.562 99.5993C534.899 96.3673 535.067 93.6066 535.067 91.3173C535.067 89.8359 535.471 88.6239 536.279 87.6813C537.087 86.6713 538.198 86.1663 539.612 86.1663C540.42 86.1663 541.329 86.4356 542.339 86.9743C543.416 87.4456 544.123 88.0179 544.46 88.6913C544.864 89.3646 545.066 90.4756 545.066 92.0243C545.066 92.8323 544.965 93.6066 544.763 94.3473C544.292 96.0306 544.056 98.0506 544.056 100.407L544.157 105.659C544.157 110.44 544.494 113.975 545.167 116.264C545.504 117.342 545.975 118.453 546.581 119.597C547.187 120.675 547.759 121.584 548.298 122.324C549.645 123.806 550.52 124.849 550.924 125.455C551.328 125.994 551.53 126.533 551.53 127.071C551.53 127.879 551.126 128.654 550.318 129.394C549.577 130.068 548.769 130.404 547.894 130.404C545.403 130.404 543.248 129.563 541.43 127.879C539.612 126.196 538.265 124.008 537.39 121.314C535.101 123.94 532.98 126.061 531.027 127.677C529.68 128.62 528.031 129.327 526.078 129.798C524.125 130.202 522.173 130.404 520.22 130.404C517.594 130.404 514.934 129.327 512.241 127.172C509.548 125.018 507.73 122.526 506.787 119.698C506.72 119.564 506.518 119.025 506.181 118.082C505.912 117.14 505.777 115.726 505.777 113.84C505.777 111.349 505.912 108.218 506.181 104.447C506.383 102.023 506.484 99.8013 506.484 97.7813C506.484 97.1753 506.248 96.6703 505.777 96.2663C505.373 95.8623 504.902 95.6603 504.363 95.6603C503.959 95.6603 503.488 95.7276 502.949 95.8623C502.478 95.9296 501.973 95.9633 501.434 95.9633Z" fill="black"/>
<path d="M566.956 130.404C565.609 130.404 564.465 130.169 563.522 129.697C562.579 129.226 562.007 128.721 561.805 128.182C561.064 125.489 560.694 121.954 560.694 117.577C560.694 109.497 560.829 102.932 561.098 97.8823C561.367 91.8896 561.502 86.1326 561.502 80.6113C561.502 78.9953 561.3 76.6386 560.896 73.5413C560.829 73.0026 560.728 72.0263 560.593 70.6123C560.458 69.1983 560.391 67.8853 560.391 66.6733C560.391 65.1919 560.896 64.0136 561.906 63.1383C562.983 62.2629 564.364 61.8253 566.047 61.8253C567.394 61.8253 568.471 62.2629 569.279 63.1383C570.154 63.9463 570.592 65.0573 570.592 66.4713C570.592 68.6259 570.659 71.6559 570.794 75.5613C570.929 79.1973 570.996 81.9243 570.996 83.7423C570.996 85.7623 570.929 88.4556 570.794 91.8223C570.659 93.8423 570.592 95.3236 570.592 96.2663C570.592 99.2289 570.626 101.687 570.693 103.639C573.184 101.148 576.45 98.2189 580.49 94.8523C584.53 91.4856 587.661 89.1289 589.883 87.7823C592.24 86.3683 593.788 85.6613 594.529 85.6613C595.943 85.6613 597.155 85.9643 598.165 86.5703C599.175 87.1763 599.68 88.0516 599.68 89.1963C599.68 90.3409 599.512 91.2499 599.175 91.9233C598.838 92.5966 598.232 93.2699 597.357 93.9433L584.328 103.437C585.809 104.178 587.055 105.121 588.065 106.265C589.142 107.41 590.22 108.824 591.297 110.507C593.586 114.278 595.404 117.039 596.751 118.789C598.165 120.54 599.444 121.415 600.589 121.415L603.114 121.314C603.585 121.314 603.989 121.584 604.326 122.122C604.73 122.661 604.932 123.435 604.932 124.445C604.932 125.994 604.158 127.24 602.609 128.182C601.128 129.125 599.444 129.596 597.559 129.596C594.933 129.596 592.61 128.586 590.59 126.566C588.57 124.479 586.651 121.685 584.833 118.183C582.207 113.201 579.615 110.238 577.056 109.295L570.592 114.547L570.996 125.556C570.996 127.307 570.525 128.553 569.582 129.293C568.707 130.034 567.831 130.404 566.956 130.404Z" fill="black"/>
<path d="M487.8 121.75C487.8 124.25 486.8 126.6 484.8 128.8C482.8 130.9 480.6 131.95 478.2 131.95C475.4 131.95 472.85 131.2 470.55 129.7C468.25 128.1 467.1 126.1 467.1 123.7C467.1 119.9 467.8 117.1 469.2 115.3C470.7 113.5 472.9 112.6 475.8 112.6C479.2 112.6 482.05 113.45 484.35 115.15C486.65 116.75 487.8 118.95 487.8 121.75Z" fill="black"/>
</svg>
